<svg width="47" height="47" viewBox="0 0 47 47" fill="none" xmlns="http://www.w3.org/2000/svg">
<g clip-path="url(#clip0_232_4804)">
<path d="M34.533 13.0902C34.7301 12.0981 34.5227 11.122 33.9505 10.341C33.3789 9.55989 32.5107 9.06824 31.5057 8.95578C30.5162 8.84486 29.5179 9.11777 28.6915 9.72292L11.8629 22.0467L11.9459 17.6843C11.9645 16.7097 11.5941 15.8074 10.9023 15.144C10.1862 14.4568 9.22559 14.1127 8.18967 14.1751C6.12453 14.3 4.41381 16.0427 4.37512 18.0593L4.07538 33.8577C4.01192 36.6802 4.83272 39.3391 6.44903 41.5461C8.92482 44.9268 12.8503 46.6896 16.9522 46.6891C19.9857 46.6891 23.1162 45.7254 25.8282 43.7392L32.8713 38.5812C34.5964 37.3173 35.0442 34.9844 33.8695 33.3805C33.2979 32.5999 32.4297 32.1077 31.4247 31.9958C31.418 31.9953 31.4118 31.9953 31.4051 31.9948L31.5903 31.8591C32.4163 31.2539 32.9781 30.3836 33.171 29.4081C33.3681 28.4165 33.1607 27.4394 32.5886 26.6588C32.017 25.8783 31.1487 25.3861 30.1437 25.2736C29.9626 25.253 29.7816 25.2499 29.601 25.2551C29.8311 24.8702 29.9988 24.4503 30.087 24.0066C30.2835 23.015 30.0761 22.0384 29.5045 21.2574C28.9092 20.4443 28.0089 19.9738 27.0416 19.8701L32.9528 15.5412C33.7782 14.9361 34.34 14.0658 34.533 13.0902ZM32.343 14.7091L24.2449 20.6398L19.5074 24.1093C19.2774 24.2774 19.2278 24.6004 19.396 24.83C19.5642 25.0601 19.8861 25.1101 20.1167 24.9414L24.8542 21.472C26.1213 20.5444 27.8335 20.7224 28.6724 21.8667C29.0712 22.412 29.2146 23.1007 29.0748 23.8059C28.9319 24.5271 28.513 25.1736 27.896 25.6255L23.1585 29.0949C22.9284 29.2631 22.8788 29.586 23.047 29.8156C23.094 29.8801 23.1549 29.9265 23.2209 29.9621C23.2405 29.973 23.2616 29.9766 23.2823 29.9843C23.3313 30.0029 23.3798 30.0163 23.4319 30.0194C23.4427 30.0199 23.453 30.0266 23.4639 30.0266C23.4892 30.0266 23.5134 30.0189 23.5387 30.0148C23.5588 30.0117 23.5789 30.0106 23.5985 30.0055C23.6579 29.9895 23.7156 29.9652 23.7683 29.9265L27.9388 26.8724C28.5553 26.4205 29.2971 26.2136 30.0292 26.2982C30.7432 26.3777 31.3571 26.7218 31.7564 27.2676C32.1557 27.8129 32.2991 28.5016 32.1593 29.2069C32.0164 29.9281 31.5975 30.5745 30.9805 31.0264L26.891 34.0212C26.6614 34.1894 26.6114 34.5124 26.7796 34.7419C26.8802 34.8802 27.037 34.9529 27.1959 34.9529C27.3016 34.9529 27.4084 34.9209 27.5003 34.8534L29.2182 33.5951L29.2192 33.5946C29.8357 33.1426 30.5776 32.9394 31.3097 33.0204C32.0242 33.0998 32.6376 33.4444 33.0369 33.9897C33.8757 35.1345 33.5275 36.821 32.261 37.7491L25.2179 42.9071C19.298 47.2421 11.251 46.3584 7.28014 40.9363C5.799 38.914 5.04733 36.4738 5.10563 33.8783L5.40588 18.0789C5.43426 16.5869 6.71059 15.2977 8.25106 15.2043C8.99757 15.16 9.68113 15.4024 10.1872 15.8879C10.6686 16.3496 10.9265 16.9806 10.9131 17.6641L10.8104 23.0677C10.8068 23.2637 10.9146 23.4448 11.0885 23.5356C11.2629 23.6253 11.4723 23.6094 11.6312 23.4938L29.3007 10.5556C29.9172 10.1037 30.6586 9.89832 31.3912 9.98138C32.1052 10.0608 32.7191 10.4055 33.1184 10.9508C33.5177 11.4961 33.6611 12.1848 33.5213 12.89C33.3784 13.6112 32.96 14.2571 32.343 14.7091Z" fill="white"/>
<path d="M27.6236 7.94976C27.4605 7.94976 27.3001 7.87289 27.2 7.72895L23.8843 2.9765C23.7213 2.74279 23.7786 2.42139 24.0123 2.25837C24.2475 2.09534 24.5679 2.15261 24.7304 2.38631L28.0461 7.13877C28.2086 7.37247 28.1519 7.69387 27.9182 7.8569C27.8284 7.91984 27.7252 7.94976 27.6236 7.94976Z" fill="white"/>
<path d="M37.5789 22.218C37.4158 22.218 37.2554 22.1411 37.1553 21.9972L33.8396 17.2447C33.6771 17.011 33.7339 16.6896 33.9676 16.5266C34.2028 16.363 34.5232 16.4208 34.6857 16.6545L38.0014 21.407C38.1639 21.6407 38.1071 21.9621 37.8734 22.1251C37.7831 22.188 37.6805 22.218 37.5789 22.218Z" fill="white"/>
<path d="M36.5868 9.05688C36.4238 9.05688 36.2633 8.98001 36.1632 8.83607C36.0007 8.60237 36.0575 8.28096 36.2912 8.11794L41.0436 4.80226C41.2784 4.63872 41.5993 4.6965 41.7618 4.9302C41.9243 5.16391 41.8675 5.48531 41.6338 5.64834L36.8814 8.96401C36.7911 9.02695 36.6884 9.05688 36.5868 9.05688Z" fill="white"/>
<path d="M42.3602 14.7405C42.3303 14.7405 42.2998 14.738 42.2694 14.7323L36.5641 13.7165C36.2834 13.6664 36.0967 13.3987 36.1467 13.1185C36.1968 12.8384 36.465 12.6486 36.7446 12.7012L42.45 13.717C42.7306 13.767 42.9174 14.0348 42.8673 14.3149C42.823 14.5646 42.6053 14.7405 42.3602 14.7405Z" fill="white"/>
<path d="M31.9602 6.99586C31.9303 6.99586 31.8998 6.99328 31.8689 6.9876C31.5887 6.93756 31.402 6.66981 31.452 6.38968L32.4678 0.684357C32.5173 0.404224 32.7799 0.213857 33.0663 0.266995C33.3464 0.317037 33.5332 0.584788 33.4831 0.864921L32.4673 6.57024C32.4229 6.82045 32.2052 6.99586 31.9602 6.99586Z" fill="white"/>
</g>
<defs>
<clipPath id="clip0_232_4804">
<rect width="47" height="47" fill="white"/>
</clipPath>
</defs>
</svg>
